<?xml version="1.0" encoding="utf-8"?>
<!-- Generator: Adobe Illustrator 16.0.0, SVG Export Plug-In . SVG Version: 6.00 Build 0)  -->
<!DOCTYPE svg PUBLIC "-//W3C//DTD SVG 1.0//EN" "http://www.w3.org/TR/2001/REC-SVG-20010904/DTD/svg10.dtd">
<svg version="1.0" id="Layer_1" xmlns="http://www.w3.org/2000/svg" xmlns:xlink="http://www.w3.org/1999/xlink" x="0px" y="0px"
	 width="100px" height="100px" viewBox="0 0 100 100" enable-background="new 0 0 100 100" xml:space="preserve">
<path d="M20,43.333v-6.667h6.667v6.667h40v-6.667h6.666v6.667h10V30c0-3.666-3.001-6.667-6.666-6.667H63.333v-6.667
	c0-3.665-3.001-6.667-6.666-6.667h-20C33,10,30,13.001,30,16.667v6.667H16.667C13,23.333,10,26.334,10,30v13.333H20z M36.667,16.667
	h20v6.667h-20V16.667z"/>
<path d="M50,50H26.667v6.667H20V50H10v20c0,3.665,3,6.667,6.667,6.667H50V50z"/>
<path d="M56.667,50v40H90V50H56.667z M80,80H66.667v-6.667H80V80z M80,66.667H66.667V60H80V66.667z"/>
</svg>
